<svg width="680" height="189" viewBox="0 0 680 189" fill="none" xmlns="http://www.w3.org/2000/svg"><g clip-path="url(#a)"><path d="m560.97 0-35.079 24.571 38.077-7.79L560.97 0ZM644.621 0H560.97l10.194 15.282L644.621 0Z" fill="#D0CBC7"/><path d="m543.88 49.742 34.78 50.34-10.794-62.027-23.986 11.687Z" fill="#8C847A"/><path d="m644.621 0-62.963 31.163 45.573 68.919L680 24.572 644.621 0Z" fill="#D0CBC7"/><path d="m567.866 38.055 10.794 62.027h48.571l-45.573-68.919-13.792 6.892ZM571.164 15.282 560.97 0l2.998 16.78 7.196-1.498Z" fill="#ADA59E"/><path d="M581.658 31.163 644.621 0l-73.457 15.282 10.494 15.881ZM567.866 38.055l-3.898-21.275-38.077 7.791 17.989 25.17 23.986-11.686Z" fill="#ADA59E"/><path d="m563.968 16.78 3.898 21.275 13.792-6.892-10.494-15.881-7.196 1.498Z" fill="#8C847A"/><path d="M667 183.5c0 2.513-1.987 4.5-4.529 4.5S658 186.013 658 183.5s1.958-4.5 4.5-4.5 4.5 1.958 4.5 4.5Zm-8.299 0c0 2.133 1.607 3.857 3.799 3.857s3.799-1.695 3.799-3.857-1.637-3.857-3.799-3.857-3.799 1.695-3.799 3.857Zm2.805 2.601h-.642v-5.202h1.987c1.168 0 1.694.497 1.694 1.432 0 .935-.613 1.315-1.314 1.461l1.548 2.309h-.76l-1.461-2.309h-1.081v2.309h.029Zm.848-2.835c.789 0 1.549 0 1.549-.906 0-.73-.614-.905-1.228-.905h-1.169v1.811h.848ZM490.511 101.281c17.99 0 32.681-15.582 32.681-35.059 0-19.477-14.691-35.059-32.681-35.059-17.989 0-32.68 15.582-32.68 35.06 0 19.476 14.391 35.058 32.68 35.058Zm-5.696-67.42c.899 0 1.799-.3 2.398-.3 3.298 0 6.597 1.198 9.895 3.296 7.195 4.794 12.292 14.682 14.391 25.47 2.998 17.978-3.898 34.16-15.291 36.257-3.898.6-8.395-.3-12.293-2.996-7.195-5.094-12.292-14.383-14.391-25.47-3.298-17.98 3.598-34.16 15.291-36.258Zm-306.42 9.588c-1.799-2.397-4.197-4.495-6.596-5.993-2.399-1.498-5.097-2.697-7.496-3.296-2.398-.9-5.097-1.199-7.495-1.498-2.399-.3-4.797-.3-6.596-.3h-29.683v1.798h.3c2.099 0 3.598.3 4.497.899.9.599 1.2 1.798 1.2 3.895V93.79c0 2.097-.6 3.296-1.2 3.895-.899.6-2.398.899-4.497.899h-.3v1.798h27.584c6.896 0 12.892-.899 17.39-2.997 4.797-1.797 8.695-4.494 11.393-7.79 2.698-3.296 4.797-6.892 6.296-11.087 1.2-4.195 1.799-8.69 1.799-13.185 0-5.094-.599-9.289-1.799-12.885-1.499-3.596-2.998-6.592-4.797-8.99Zm-5.397 33.56a24.964 24.964 0 0 1-4.197 10.488c-2.099 2.996-4.797 5.693-8.395 7.79-3.298 1.799-7.796 2.997-12.893 2.997h-10.494V34.16h11.394c3.598 0 7.195.6 10.194 1.798 2.998 1.198 5.696 3.296 8.095 5.693 2.399 2.697 4.197 5.693 5.397 9.589 1.199 3.895 2.099 8.39 2.099 13.783 0 4.196-.6 8.091-1.2 11.986Zm-56.966-3.595c-.9 3.595-2.099 6.891-3.598 9.888-1.499 2.996-2.998 5.693-5.097 8.09-2.099 2.098-4.198 3.896-6.896 5.394-2.698 1.498-5.997 2.098-9.894 2.098H77.654v-59.93c0-2.097.6-3.296 1.2-3.895.9-.6 2.398-.9 4.497-.9h.3v-1.797H60.564v1.798h.3c2.099 0 3.598.3 4.498.899.899.599 1.199 1.798 1.199 3.895V94.69c0 .899-.3 1.498-.6 2.097 0 .6-.3.9-.6.9-.6.299-.899.299-1.798.299H60.564v1.798h50.671l6.596-27.268-1.799.899Zm315.414 23.971c4.797-1.797 8.695-4.494 11.393-7.79 2.699-3.296 4.798-6.892 6.297-11.087 1.499-4.195 1.799-8.69 1.799-13.185 0-5.094-.6-9.289-1.799-12.885-1.199-3.596-2.699-6.592-4.498-8.99-1.799-2.396-4.197-4.494-6.596-5.992-2.398-1.498-4.797-2.697-7.495-3.296-2.399-.9-5.097-1.199-7.496-1.498-2.398-.3-4.797-.3-6.596-.3h-29.683v1.798h.3c2.099 0 3.598.3 4.498.899.899.599 1.199 1.798 1.199 3.895V93.79c0 2.097-.3 3.296-1.199 3.895-.9.6-2.399.899-4.498.899h-.3v1.798h27.584c6.297-.3 12.293-1.199 17.09-2.997Zm-28.183.9V34.16h11.393c3.598 0 7.196.6 10.194 1.798 2.998 1.198 5.697 3.296 8.095 5.693 2.399 2.397 4.198 5.693 5.397 9.589 1.199 3.895 2.099 8.39 2.099 13.783 0 3.896-.3 7.791-1.199 11.687a24.965 24.965 0 0 1-4.198 10.487c-2.099 2.997-4.797 5.694-8.395 7.791-3.298 1.798-7.795 2.997-12.892 2.997l-10.494.3ZM55.467 73.413c-.9 3.595-2.098 6.891-3.597 9.888-1.5 2.996-2.999 5.693-5.097 8.09-2.1 2.098-4.198 3.896-6.897 5.394-2.398 1.199-5.396 1.798-8.694 1.798H17.09V65.623h9.894c2.399 0 4.497.3 5.997.899 1.499.599 2.398 1.498 2.998 2.996.6 1.199.9 2.997 1.2 4.795 0 1.797.299 8.989.299 11.686v.3h1.5v-43.15h-1.8v.3c0 2.697 0 10.787-.3 12.585s-.6 2.997-1.199 4.195c-.6 1.199-1.5 2.098-2.998 2.397-1.5.6-3.298.9-5.697.9H17.09V34.16H33.58c2.399 0 4.797.3 6.596.6 1.8.299 3.298 1.198 4.498 2.097 1.199.899 2.398 2.397 3.298 3.895.9 1.498 1.799 3.895 2.698 6.293v.3h1.8l-5.098-15.283H0v1.798h.3c2.099 0 3.598.3 4.497.9.9.598 1.2 1.797 1.2 3.895v55.734c-.3 1.498-.6 2.697-1.5 2.996-.9.6-2.398.6-4.497.6v1.798h50.67l6.596-26.669v-.3l-1.799.6Zm168.801-42.25c-17.989 0-32.681 15.581-32.681 35.058s14.692 35.059 32.681 35.059c17.99 0 32.681-15.582 32.681-35.059 0-19.477-14.691-35.059-32.681-35.059Zm5.397 67.72c-3.898.599-8.395-.3-12.293-2.997-7.196-5.094-12.592-14.383-14.391-25.47-2.999-17.979 3.897-34.16 15.291-36.257.899 0 1.799-.3 2.398-.3 3.298 0 6.596 1.199 9.894 3.296 7.196 4.795 12.593 14.683 14.392 25.77 3.298 17.38-3.598 33.86-15.291 35.958Zm347.795 21.874H580.459c.599 0 1.199.3 1.798.599.3.3.9.6.9 1.199.3.599.3 1.498.3 2.697v42.25l-22.487-32.062-11.993-16.781h-17.989v1.798h.299c2.099 0 3.598.3 5.397.899 1.499.6 2.699 1.798 3.598 3.596v54.835c0 1.199 0 2.098-.3 2.697-.299.6-.599.899-.899 1.199-.6.3-1.199.599-1.799.599H534.286v1.798h14.691v-1.798H545.979c-.6 0-1.199-.299-1.799-.599-.6-.3-.9-.599-1.199-1.199-.3-.599-.3-1.498-.3-2.697v-51.839l41.375 58.731v.3h1.2v-.3c.299-3.595 2.398-6.592 5.397-8.39l.299-.299-5.396-7.492v-45.246c0-.899.299-1.798.599-2.398.3-.599.6-.898 1.199-1.198.6-.3 1.2-.3 1.799-.599H592.152v-1.798H577.46v1.498Zm76.755 38.654c-1.199 3.596-2.398 6.892-3.598 10.188-1.499 2.997-2.998 5.694-5.097 8.091-1.799 2.097-4.197 3.895-6.896 5.394-2.398 1.198-5.397 1.798-8.695 1.798h-14.091v-32.962h10.194c2.398 0 4.497.3 5.696.899 1.2.6 2.399 1.498 2.999 2.997.599 1.198.899 2.996 1.199 4.794.3 1.798.3 8.989.3 11.686v.3h1.799v-42.85h-2.399v.3c0 2.397 0 10.787-.3 12.585s-.599 2.997-1.199 4.195c-.6 1.199-1.499 2.098-2.998 2.397-1.2.6-3.298.899-5.697.899h-10.194v-29.365H631.728c2.399 0 4.798.3 6.596.599 1.799.3 3.299 1.199 4.498 2.098 1.199.899 2.398 2.397 3.298 3.895.899 1.798 1.799 3.896 2.698 6.592v.3h1.799l-5.097-15.282h-47.372v1.798h.3c2.099 0 3.598.3 4.497.899.9.599 1.2 1.798 1.2 3.895v55.735c-.3 1.498-.6 2.697-1.5 2.996-.899.599-2.398.6-4.497.6h-.3v1.797h50.67l6.597-26.668v-.3l-.9-.3Zm-158.906-41.651c-17.99 0-32.681 15.582-32.681 35.059 0 19.477 14.691 35.059 32.681 35.059 17.989 0 32.68-15.582 32.68-35.059 0-19.477-14.391-35.059-32.68-35.059Zm5.696 67.421c-3.897.599-8.395-.299-12.293-3.296-7.195-5.094-12.292-14.383-14.391-25.47-2.998-17.979 3.898-34.16 15.291-36.257.899 0 1.499-.3 2.399-.3 3.298 0 6.596 1.199 9.894 3.296 7.195 5.094 12.293 14.383 14.391 25.47 2.998 18.279-3.598 34.46-15.291 36.557ZM332.504 78.208h25.485l5.097 12.585c.9 2.098 1.2 3.896.9 5.394-.3 1.498-1.499 2.097-3.598 2.097h-2.698v1.798h26.084v-1.798h-.3c-2.098 0-4.197-.599-5.396-1.797-1.5-1.2-2.699-3.297-4.198-6.293l-24.885-60.529v-.3h-1.499v.3c-.3 3.596-2.399 6.592-5.397 8.09h-.3l2.698 6.593-19.788 47.943c-.6 1.499-1.799 2.997-3.298 3.896-.3.3-.6.3-.9.6-1.199-.6-2.698-1.799-3.897-3.597L300.423 69.22h-6.596c-2.398 0-4.797-1.199-6.296-2.997h2.998c2.699 0 5.397-.3 8.095-.6 2.699-.299 5.397-1.198 7.796-2.396 2.398-1.199 4.197-2.997 5.696-5.094 1.5-2.098 2.399-5.094 2.399-8.99 0-3.895-.899-6.892-2.399-8.99-1.499-2.097-3.897-3.895-6.296-5.093-2.698-1.199-5.697-1.798-8.695-2.098-3.298-.3-6.596-.6-9.894-.6h-26.085v1.799h.3c2.099 0 3.598.3 4.498.899.899.599 1.199 1.798 1.199 3.895V93.79c0 2.097-.6 3.296-1.199 3.895-.9.6-2.399.899-4.498.899h-.3v1.798h23.087v-1.798h-.3c-2.099 0-3.598-.3-4.497-.899-.9-.6-1.2-1.798-1.2-3.895V66.222h7.196l15.591 23.373c.899 1.198 1.799 2.696 2.698 3.895.9 1.199 2.099 2.397 3.298 3.596 1.2.899 2.699 1.798 4.198 2.397 1.499.599 3.298.899 5.097.899h15.291v-1.798h-.3c-.899 0-1.799 0-2.399-.3-.599-.3-1.199-.599-1.798-1.198-.3-.6-.6-.9-.9-1.798 0-.6 0-1.498.3-2.397l5.996-14.683Zm12.893-31.163L357.39 76.41h-23.986l11.993-29.365Zm-67.461 17.38V34.46h11.094c5.097 0 8.695 1.198 11.393 3.895 2.699 2.697 3.898 6.293 3.898 11.087 0 2.996-.3 5.394-1.199 7.491-.9 1.798-2.099 3.596-3.598 4.495-1.499 1.198-3.298 2.097-5.397 2.397-2.099.6-4.198.6-6.596.6h-9.595Zm102.24 90.193a62.216 62.216 0 0 0-8.695-5.693c-2.998-1.798-5.996-3.596-8.395-5.394-2.398-1.798-4.797-3.895-6.296-6.292-1.799-2.098-2.398-4.795-2.398-7.791 0-2.697.899-4.795 2.398-6.593 1.499-1.797 4.497-2.397 8.095-2.397 2.699 0 5.097.6 7.496 1.499 2.399.898 4.197 2.397 5.996 4.195 1.799 1.797 2.999 3.895 3.898 6.592.9 2.397 1.499 5.393 1.499 8.39v.3h1.799V118.66h-1.799v.3c0 1.199-.3 2.098-.599 2.697-.3.599-1.2.599-2.399.599-.899 0-1.799-.299-2.698-.599-.9-.599-2.099-.899-3.298-1.498-1.2-.6-2.699-1.199-4.498-1.499-1.799-.599-3.898-.599-6.296-.599-2.399 0-4.797.3-7.196.899-2.398.599-4.797 1.798-6.596 2.997-2.099 1.498-3.598 2.996-4.797 5.094-1.199 2.097-1.799 4.494-1.799 7.191 0 2.997.899 5.693 2.698 8.39 1.799 2.397 4.198 4.795 6.896 6.892 2.699 2.098 5.697 4.195 8.695 5.993s5.997 3.895 8.695 5.993c2.698 2.098 4.797 3.895 6.596 5.993 1.799 2.097 2.699 4.195 2.699 6.892 0 2.097-.3 3.596-1.2 5.094-.599 1.198-1.799 2.397-2.698 3.296-1.199.899-2.699 1.498-4.198 1.798-1.499.3-3.298.599-5.097.599-2.998 0-5.696-.599-8.395-1.498-2.698-.899-4.797-2.697-6.596-4.794-1.799-2.098-3.298-4.795-4.497-8.091-1.2-3.596-1.799-7.491-1.799-11.686v-.3h-1.799v28.467h1.799v-.3c0-1.798 1.499-2.996 4.197-2.996 1.2 0 2.099.299 3.298.599 1.2.599 2.399.899 3.598 1.498 1.499.599 2.998.899 4.797 1.498 1.799.6 4.198.6 6.896.6 4.198 0 7.796-.6 10.494-1.199 2.699-.899 5.097-2.098 6.896-3.895 1.799-1.499 2.998-3.596 3.598-5.694.6-2.097 1.199-4.494 1.199-6.592 0-3.296-.899-6.293-2.698-8.69-2.399-2.996-4.797-5.393-7.496-7.491Zm17.39-35.658-4.197 22.474h1.799v-.3c4.197-20.076 16.79-20.376 17.089-20.376h8.995v59.33c0 2.098-.3 3.296-1.199 3.896-.9.599-2.399.899-4.497.899h-.3v1.797h23.086v-1.797h-.6c-2.098 0-3.597-.3-4.497-.899-.899-.6-1.199-1.798-1.199-3.896v-59.33h8.995c.299 0 12.892.3 17.089 20.376v.3h1.799l-4.197-22.474h-58.166Z" fill="#243746"/></g><defs><clipPath id="a"><path fill="#fff" d="M0 0h680v189H0z"/></clipPath></defs></svg>